<svg  viewBox="0 0 12 12"  xmlns="http://www.w3.org/2000/svg">
<path fill-rule="evenodd" clip-rule="evenodd" d="M6 11.25C6.68944 11.25 7.37213 11.1142 8.00909 10.8504C8.64605 10.5865 9.2248 10.1998 9.71231 9.71231C10.1998 9.2248 10.5865 8.64605 10.8504 8.00909C11.1142 7.37213 11.25 6.68944 11.25 6C11.25 5.31056 11.1142 4.62787 10.8504 3.99091C10.5865 3.35395 10.1998 2.7752 9.71231 2.28769C9.2248 1.80018 8.64605 1.41347 8.00909 1.14963C7.37213 0.885795 6.68944 0.75 6 0.75C4.60761 0.75 3.27226 1.30312 2.28769 2.28769C1.30312 3.27226 0.75 4.60761 0.75 6C0.75 7.39239 1.30312 8.72774 2.28769 9.71231C3.27226 10.6969 4.60761 11.25 6 11.25ZM5.475 10.1632C4.46018 10.0367 3.52659 9.54365 2.8498 8.77695C2.17301 8.01024 1.79967 7.02268 1.8 6C1.8 5.6745 1.842 5.36475 1.91025 5.06025L4.425 7.575V8.1C4.425 8.6775 4.8975 9.15 5.475 9.15V10.1632ZM9.0975 8.82975C9.03089 8.61758 8.89813 8.43229 8.71865 8.30098C8.53917 8.16968 8.32238 8.09925 8.1 8.1H7.575V6.525C7.575 6.23625 7.33875 6 7.05 6H3.9V4.95H4.95C5.23875 4.95 5.475 4.71375 5.475 4.425V3.375H6.525C7.1025 3.375 7.575 2.9025 7.575 2.325V2.10975C9.11325 2.7345 10.2 4.24125 10.2 6C10.2 7.092 9.78 8.08425 9.0975 8.82975Z" />
</svg>
