<svg  viewBox="0 0 8 11" xmlns="http://www.w3.org/2000/svg">
<path d="M4.7168 3.90234C5.1543 3.56738 5.31836 3.25977 5.31836 2.77441C5.31836 2.04297 4.67578 1.52344 3.75977 1.52344C2.92578 1.52344 2.2627 1.99512 2.18066 2.65137H1.00488C1.10059 1.35254 2.21484 0.470703 3.7666 0.470703C5.44824 0.470703 6.51465 1.31836 6.51465 2.66504C6.51465 3.10938 6.23438 3.60156 5.87891 3.92285V3.97754H7.28711V4.75684H0.485352V3.90234H4.7168ZM1.75 6.51367H0.485352V5.74121H7.28711V6.5957H3.02148C2.53613 6.81445 2.23535 7.25195 2.23535 7.75781C2.23535 8.52344 2.93945 9.0498 3.95117 9.0498C4.93555 9.0498 5.55078 8.63281 5.70801 7.85352H6.91797C6.78809 9.22754 5.63965 10.1025 3.95117 10.1025C2.1875 10.1025 1.01172 9.2207 1.01172 7.92188C1.01172 7.36133 1.31934 6.8623 1.75 6.5752V6.51367Z"/>
</svg>
