<svg  viewBox="0 0 16 16"  xmlns="http://www.w3.org/2000/svg">
<path fill-rule="evenodd" clip-rule="evenodd" d="M11.9214 10.7227L15.4173 14.2807C15.5739 14.4499 15.6585 14.6735 15.653 14.9041C15.6476 15.1346 15.5527 15.354 15.3883 15.5157C15.2239 15.6774 15.003 15.7688 14.7724 15.7705C14.5418 15.7721 14.3196 15.684 14.1529 15.5246L10.6589 11.9702C9.31068 12.9858 7.62694 13.4512 5.94856 13.272C4.27018 13.0929 2.72259 12.2826 1.61914 11.0054C0.515694 9.72808 -0.0611438 8.0792 0.00542615 6.3926C0.0719961 4.706 0.776999 3.10772 1.97768 1.92138C3.17837 0.735034 4.78501 0.0492899 6.47229 0.00299426C8.15956 -0.0433014 9.80139 0.553311 11.0653 1.67203C12.3293 2.79074 13.1208 4.34796 13.2798 6.02838C13.4387 7.70879 12.9532 9.38682 11.9214 10.7227ZM6.65458 11.5345C7.94884 11.5345 9.19009 11.0204 10.1053 10.1052C11.0205 9.19004 11.5346 7.94879 11.5346 6.65453C11.5346 5.36027 11.0205 4.11902 10.1053 3.20384C9.19009 2.28866 7.94884 1.77452 6.65458 1.77452C5.36033 1.77452 4.11908 2.28866 3.2039 3.20384C2.28872 4.11902 1.77458 5.36027 1.77458 6.65453C1.77458 7.94879 2.28872 9.19004 3.2039 10.1052C4.11908 11.0204 5.36033 11.5345 6.65458 11.5345Z" />
</svg>
