<svg viewBox="0 0 8 5"  xmlns="http://www.w3.org/2000/svg">
<path fill-rule="evenodd" clip-rule="evenodd" d="M0.909976 0.577614C0.754303 0.735024 0.666992 0.947477 0.666992 1.16886C0.666992 1.39025 0.754303 1.6027 0.909976 1.76011L3.35914 4.23095C3.54081 4.41011 3.77581 4.49928 4.00831 4.49928C4.24081 4.49928 4.47164 4.41011 4.64914 4.23095L7.09081 1.76845C7.24628 1.61093 7.33346 1.39852 7.33346 1.1772C7.33346 0.955876 7.24628 0.743463 7.09081 0.585947C7.01428 0.508293 6.92308 0.446628 6.82251 0.404538C6.72194 0.362448 6.614 0.340773 6.50498 0.340773C6.39595 0.340773 6.28801 0.362448 6.18744 0.404538C6.08687 0.446628 5.99567 0.508293 5.91914 0.585947L4.00414 2.51678L2.08164 0.577614C2.00495 0.500263 1.91369 0.438866 1.81314 0.396967C1.71259 0.355068 1.60474 0.333496 1.49581 0.333496C1.38688 0.333496 1.27903 0.355068 1.17848 0.396967C1.07793 0.438866 0.986673 0.500263 0.909976 0.577614Z" />
</svg>
