<svg width="18" height="14" viewBox="0 0 18 14"  xmlns="http://www.w3.org/2000/svg">
<path fill-rule="evenodd" clip-rule="evenodd" d="M9.0013 11.9999C5.2213 11.9999 2.33547 8.44992 2.33547 6.99992C2.33547 5.33242 5.21797 1.99992 9.00214 1.99992C12.6488 1.99992 15.6671 5.31075 15.6671 6.99992C15.6671 8.44992 12.7821 11.9999 9.00214 11.9999H9.0013ZM9.00214 0.333252C4.4013 0.333252 0.667969 4.36742 0.667969 6.99992C0.667969 9.57158 4.4813 13.6666 9.0013 13.6666C13.5205 13.6666 17.3346 9.57158 17.3346 6.99992C17.3346 4.36742 13.6013 0.333252 9.0013 0.333252" />
<path fill-rule="evenodd" clip-rule="evenodd" d="M8.98214 8.65325C8.06297 8.65325 7.31547 7.90575 7.31547 6.98659C7.31547 6.06742 8.06297 5.31992 8.98214 5.31992C9.90213 5.31992 10.6488 6.06742 10.6488 6.98659C10.6488 7.90575 9.90213 8.65325 8.98214 8.65325ZM8.98214 3.65325C7.1438 3.65325 5.6488 5.14825 5.6488 6.98659C5.6488 8.82492 7.1438 10.3199 8.98214 10.3199C10.8213 10.3199 12.3155 8.82492 12.3155 6.98659C12.3155 5.14825 10.8213 3.65325 8.98214 3.65325Z" />
</svg>
