<svg viewBox="0 0 16 16" fill = '' xmlns="http://www.w3.org/2000/svg">
<rect width="16" height="16" fill-opacity="0.01"/>
<path fill-rule="evenodd" clip-rule="evenodd" d="M8.51092 2.65537C8.67289 2.72249 8.82006 2.82086 8.944 2.94487L13.056 7.05621C13.1801 7.18016 13.2786 7.32737 13.3457 7.48941C13.4129 7.65144 13.4475 7.82513 13.4475 8.00054C13.4475 8.17595 13.4129 8.34964 13.3457 8.51168C13.2786 8.67371 13.1801 8.82092 13.056 8.94487L8.944 13.0562C8.82006 13.1802 8.67289 13.2786 8.51092 13.3457C8.34894 13.4128 8.17533 13.4474 8 13.4474C7.82467 13.4474 7.65106 13.4128 7.48908 13.3457C7.32711 13.2786 7.17995 13.1802 7.056 13.0562L2.944 8.94487C2.81989 8.82092 2.72143 8.67371 2.65426 8.51168C2.58708 8.34964 2.55251 8.17595 2.55251 8.00054C2.55251 7.82513 2.58708 7.65144 2.65426 7.48941C2.72143 7.32737 2.81989 7.18016 2.944 7.05621L7.056 2.94487C7.17995 2.82086 7.32711 2.72249 7.48908 2.65537C7.65106 2.58826 7.82467 2.55371 8 2.55371C8.17533 2.55371 8.34894 2.58826 8.51092 2.65537ZM7.5286 9.13827C7.65362 9.2633 7.82319 9.33354 8 9.33354C8.17681 9.33354 8.34638 9.2633 8.4714 9.13827C8.59643 9.01325 8.66667 8.84368 8.66667 8.66687V5.33354C8.66667 5.15673 8.59643 4.98716 8.4714 4.86213C8.34638 4.73711 8.17681 4.66687 8 4.66687C7.82319 4.66687 7.65362 4.73711 7.5286 4.86213C7.40357 4.98716 7.33333 5.15673 7.33333 5.33354V8.66687C7.33333 8.84368 7.40357 9.01325 7.5286 9.13827ZM7.5286 11.1383C7.65362 11.2633 7.82319 11.3335 8 11.3335C8.17681 11.3335 8.34638 11.2633 8.4714 11.1383C8.59643 11.0133 8.66667 10.8437 8.66667 10.6669C8.66667 10.4901 8.59643 10.3205 8.4714 10.1955C8.34638 10.0704 8.17681 10.0002 8 10.0002C7.82319 10.0002 7.65362 10.0704 7.5286 10.1955C7.40357 10.3205 7.33333 10.4901 7.33333 10.6669C7.33333 10.8437 7.40357 11.0133 7.5286 11.1383Z" />
</svg>
