<svg width="24" height="32" viewBox="0 0 24 32"  xmlns="http://www.w3.org/2000/svg">
<path fill-rule="evenodd" clip-rule="evenodd" d="M10.4334 0.036966C10.4334 0.11713 10.5941 0.490276 10.7906 0.866057C11.0399 1.34309 11.1196 1.93103 11.0552 2.81393C10.9153 4.72688 9.7328 6.83354 7.12024 9.82464C3.78244 13.6461 2.84787 15.3808 2.80192 17.841C2.76707 19.7015 3.33425 21.0109 4.70169 22.2274C5.96635 23.3523 5.78676 23.4964 4.19134 22.6375C2.57172 21.7653 1.5033 20.2191 1.2176 18.3345C1.13102 17.7635 0.983403 17.3433 0.889724 17.4007C0.492367 17.6436 0 19.797 0 21.2914C0 26.3472 3.16398 30.3955 8.11185 31.6707C9.83891 32.1157 13.3332 32.1084 14.8882 31.6566C19.9511 30.1854 23.3086 25.8838 23.3086 20.869C23.3086 18.3183 22.7113 16.8272 20.5118 13.8877C18.9002 11.7336 18.1537 10.1738 18.1346 8.91978C18.1259 8.34984 18.2518 7.725 18.4145 7.53107C18.8443 7.01868 18.5053 6.82937 17.9878 7.29278C17.2462 7.95693 16.649 9.44249 16.649 10.6239C16.649 11.2289 16.9059 12.5566 17.2198 13.5745C18.0968 16.4178 17.6957 18.9526 16.0621 20.8892C15.0962 22.0344 14.8536 21.9821 15.4905 20.766C16.2719 19.2743 16.3194 17.2012 15.6026 15.8644C15.0993 14.9255 13.1894 12.9545 12.9818 13.1599C12.9132 13.2278 13.0668 13.6347 13.323 14.0643C13.6615 14.6321 13.7701 15.1326 13.7206 15.8967C13.662 16.7993 13.5516 17.0148 12.9407 17.4209C12.0104 18.0391 11.1875 17.8847 10.6347 16.9878C9.79629 15.6274 10.1801 14.0074 11.9473 11.4457C13.5177 9.16971 13.8402 8.22839 13.8582 5.87135C13.8729 3.96982 13.8194 3.69288 13.2564 2.74519C12.9168 2.1735 12.4173 1.47289 12.1465 1.18847C11.5777 0.591085 10.4334 -0.178268 10.4334 0.036966Z" />
</svg>
