<svg width="12" height="12" viewBox="0 0 12 12" fill="none" xmlns="http://www.w3.org/2000/svg">
<path fill-rule="evenodd" clip-rule="evenodd" d="M5.8249 11.1736C5.74744 11.0962 5.68599 11.0044 5.64407 10.9033C5.60214 10.8022 5.58056 10.6938 5.58056 10.5844C5.58056 10.475 5.60214 10.3666 5.64407 10.2655C5.68599 10.1644 5.74744 10.0726 5.8249 9.99523L8.98573 6.8344L0.997395 6.8344C0.776382 6.8344 0.56442 6.7466 0.40814 6.59032C0.25186 6.43404 0.164062 6.22208 0.164062 6.00106C0.164062 5.78005 0.25186 5.56809 0.40814 5.41181C0.56442 5.25553 0.776382 5.16773 0.997395 5.16773L8.98573 5.16773L5.8249 2.0069C5.74744 1.92957 5.68599 1.83774 5.64407 1.73664C5.60214 1.63554 5.58056 1.52717 5.58056 1.41773C5.58056 1.30829 5.60214 1.19992 5.64407 1.09882C5.68599 0.997724 5.74744 0.905886 5.8249 0.828563C6.1499 0.503562 6.67823 0.503562 7.00406 0.828563L11.5866 5.4119C11.7375 5.56223 11.8249 5.76479 11.8307 5.97773L11.8307 6.02523C11.8248 6.2379 11.7374 6.44015 11.5866 6.59023L7.00406 11.1736C6.92667 11.251 6.83476 11.3125 6.7336 11.3544C6.63243 11.3964 6.52399 11.418 6.41448 11.418C6.30497 11.418 6.19653 11.3964 6.09536 11.3544C5.9942 11.3125 5.90229 11.251 5.8249 11.1736Z" fill="#42526E"/>
</svg>
