<svg width="16" height="16" viewBox="0 0 16 16"  xmlns="http://www.w3.org/2000/svg">
<rect width="16" height="16"  fill-opacity="0.01"/>
<path fill-rule="evenodd" clip-rule="evenodd" d="M10.1218 4.9335L7.99913 7.05683L5.87513 4.93283C5.81162 4.87072 5.72621 4.83611 5.63738 4.83649C5.54855 4.83686 5.46344 4.87219 5.40046 4.93483L4.93379 5.40216C4.90185 5.43281 4.87638 5.46956 4.8589 5.51023C4.84142 5.5509 4.83229 5.59466 4.83204 5.63893C4.83179 5.6832 4.84043 5.72707 4.85745 5.76793C4.87447 5.8088 4.89953 5.84583 4.93113 5.87683L7.05446 7.9995L4.93179 10.1235C4.86977 10.1871 4.83528 10.2725 4.83578 10.3614C4.83628 10.4502 4.87173 10.5353 4.93446 10.5982L5.40113 11.0648C5.53846 11.2028 5.74513 11.1982 5.87579 11.0675L7.99979 8.94416L10.1225 11.0675C10.1861 11.1295 10.2715 11.164 10.3603 11.1635C10.4492 11.163 10.5342 11.1276 10.5971 11.0648L11.0645 10.5982C11.0964 10.5675 11.1218 10.5307 11.1392 10.49C11.1566 10.4493 11.1657 10.4055 11.1659 10.3613C11.1661 10.317 11.1574 10.2731 11.1403 10.2323C11.1232 10.1914 11.0981 10.1545 11.0665 10.1235L8.94246 7.9995L11.0665 5.87683C11.1286 5.81332 11.1632 5.72791 11.1628 5.63909C11.1624 5.55026 11.1271 5.46515 11.0645 5.40216L10.5978 4.9355C10.5665 4.90348 10.5292 4.87798 10.488 4.86047C10.4468 4.84296 10.4026 4.83379 10.3578 4.8335C10.3139 4.83385 10.2705 4.84287 10.2302 4.86003C10.1898 4.87719 10.1532 4.90216 10.1225 4.9335H10.1218Z"/>
</svg>
