<svg width="20" height="20" viewBox="0 0 20 20" fill="none" xmlns="http://www.w3.org/2000/svg">
<rect width="20" height="20" fill="white" fill-opacity="0.01"/>
<path fill-rule="evenodd" clip-rule="evenodd" d="M12.6198 5.70991C12.6986 5.63239 12.8049 5.58923 12.9155 5.58985C13.026 5.59048 13.1319 5.63484 13.2098 5.71324L15.1165 7.61991C15.1555 7.65839 15.1865 7.7042 15.2078 7.7547C15.2291 7.80521 15.2402 7.85941 15.2405 7.91422C15.2409 7.96902 15.2304 8.02335 15.2096 8.07409C15.1889 8.12483 15.1584 8.17099 15.1198 8.20991L9.16313 14.1666L6.66313 11.6666L12.6198 5.70991ZM5.8298 12.4999L8.3298 14.9999L5.4048 15.7307C5.1798 15.7874 5.04147 15.6541 5.09897 15.4249L5.8298 12.4999Z" fill="#42526E"/>
</svg>
