<svg width="12" height="13" viewBox="0 0 12 13"  xmlns="http://www.w3.org/2000/svg">
<path d="M8.125 2.6H3.25C2.80127 2.6 2.4375 2.89101 2.4375 3.25C2.4375 3.60898 2.80127 3.9 3.25 3.9H8.125C8.57373 3.9 8.9375 3.60898 8.9375 3.25C8.9375 2.89101 8.57373 2.6 8.125 2.6Z" />
<path d="M8.125 4.55H3.25C2.80127 4.55 2.4375 4.84101 2.4375 5.2C2.4375 5.55898 2.80127 5.85 3.25 5.85H8.125C8.57373 5.85 8.9375 5.55898 8.9375 5.2C8.9375 4.84101 8.57373 4.55 8.125 4.55Z"/>
<path d="M4.875 6.5H3.25C2.80127 6.5 2.4375 6.79101 2.4375 7.15C2.4375 7.50898 2.80127 7.8 3.25 7.8H4.875C5.32373 7.8 5.6875 7.50898 5.6875 7.15C5.6875 6.79101 5.32373 6.5 4.875 6.5Z" />
<path d="M1.625 1.3V11.7H9.75V1.3H1.625ZM0 1.2935C0 0.5798 0.728813 0 1.62988 0H9.74512C10.6454 0 11.375 0.5837 11.375 1.2935V11.7065C11.375 12.4208 10.6462 13 9.74512 13H1.62988C1.19965 13.0005 0.786676 12.8647 0.481248 12.6223C0.17582 12.38 0.00279176 12.0507 0 11.7065V1.2935Z" />
</svg>
