<svg width="58" height="16" viewBox="0 0 58 16"  xmlns="http://www.w3.org/2000/svg">
<path fill-rule="evenodd" clip-rule="evenodd" d="M9.05389 0.1578C8.82459 0.252329 8.05766 0.859602 7.14105 1.67244L5.61091 3.02929H6.82801H8.04503L8.07096 4.69323L8.09689 6.35716L9.69986 6.38025L11.3028 6.40333V4.71631V3.02929H12.5218H13.741L12.2108 1.67244C10.7064 0.338348 10.1936 0 9.67594 0C9.54435 0 9.26443 0.0710228 9.05389 0.1578ZM31.277 1.76883C30.6192 1.86622 29.8789 2.26312 29.4603 2.74276C28.2797 4.09547 28.7746 6.09565 30.4867 6.89122C30.9204 7.09275 31.0706 7.11541 31.9739 7.11541C32.8383 7.11541 33.0362 7.08837 33.3898 6.92223C34.0233 6.6244 34.5259 6.1783 34.8181 5.6546C35.0465 5.24515 35.0839 5.07631 35.0821 4.46154C35.0803 3.86876 35.0373 3.66563 34.8321 3.28204C34.3914 2.4585 33.6188 1.94432 32.5557 1.7668C31.9876 1.67194 31.931 1.67202 31.277 1.76883ZM21.5427 2.48167V3.19779H21.9733H22.404V5.18095V7.16411L23.2413 7.13976L24.0787 7.11541L24.1058 6.1676L24.1329 5.21979H25.1793H26.2256L26.2527 6.1676L26.2798 7.11541H27.1411H28.0024V4.46154V1.80767L27.1172 1.7834L26.232 1.75922V2.73121V3.70329H25.1793H24.1266V2.94125C24.1266 2.24442 24.1065 2.16143 23.8916 1.97237C23.6707 1.77776 23.5944 1.76554 22.5997 1.76554H21.5427V2.48167ZM35.9202 4.43449L35.9454 7.11541H37.8594C39.4819 7.11541 39.8422 7.09207 40.2253 6.96191C41.368 6.57377 41.6934 5.37818 40.865 4.6115C40.509 4.282 40.5003 4.26119 40.675 4.15344C40.7757 4.09134 40.9314 3.87154 41.021 3.66496C41.3062 3.00755 41.0263 2.31106 40.3476 1.98922C39.9962 1.82258 39.7981 1.80548 37.9299 1.78062L35.8949 1.75349L35.9202 4.43449ZM43.6636 2.41848C43.5059 2.77764 42.9861 3.94079 42.5082 5.00343C42.0305 6.06608 41.6396 6.98685 41.6396 7.04961C41.6396 7.13925 41.8301 7.15863 42.5248 7.13967L43.41 7.11541L43.5995 6.63097L43.789 6.14654H45.0033H46.2177L46.3831 6.58885C46.474 6.83216 46.5959 7.05905 46.6539 7.09308C46.712 7.12712 47.1413 7.15551 47.6081 7.15627C48.3975 7.15745 48.4532 7.14633 48.4086 6.99603C48.3822 6.90723 47.8519 5.69403 47.23 4.30003L46.0995 1.76554H45.0248H43.9502L43.6636 2.41848ZM39.3602 3.23991C39.4417 3.39746 39.4417 3.50362 39.3602 3.66116C39.2556 3.8632 39.2159 3.87179 38.3878 3.87179H37.5245V3.45054V3.02929H38.3878C39.2159 3.02929 39.2556 3.03788 39.3602 3.23991ZM32.5444 3.33267C33.0517 3.51137 33.3506 3.93548 33.3506 4.47696C33.3506 5.44507 32.143 6.0071 31.1841 5.48534C30.2974 5.00293 30.3797 3.74803 31.3249 3.3379C31.7247 3.16443 32.0626 3.16299 32.5444 3.33267ZM45.3729 4.00086C45.5302 4.41065 45.659 4.77672 45.659 4.81438C45.659 4.85195 45.3575 4.88279 44.9891 4.88279C44.6206 4.88279 44.3192 4.87091 44.3192 4.8565C44.3192 4.79298 44.8866 3.35989 44.9442 3.27774C45.0371 3.14547 45.0581 3.18086 45.3729 4.00086ZM2.33425 5.91653C0.794831 7.28593 0.694538 7.3947 0.631663 7.76371C0.518164 8.43047 0.648506 8.60604 2.40258 10.1482L4.02967 11.5788V8.02017C4.02967 6.06296 4.01627 4.46154 3.99981 4.46154C3.98344 4.46154 3.23392 5.11633 2.33425 5.91653ZM15.3222 7.9799C15.3222 9.93719 15.355 11.5385 15.3951 11.5385C15.5369 11.5385 18.4635 8.8807 18.6144 8.61506C18.803 8.28269 18.8106 7.82943 18.6336 7.47078C18.56 7.32165 17.7848 6.57453 16.911 5.81046L15.3222 4.42135V7.9799ZM39.2945 5.02062C39.5573 5.10942 39.6584 5.46378 39.4867 5.69454C39.348 5.88081 39.2794 5.89379 38.4314 5.89379H37.5245V5.43041V4.96704H38.3301C38.7732 4.96704 39.2072 4.99113 39.2945 5.02062ZM31.343 8.75668C30.6888 8.87792 30.2778 9.06664 29.7852 9.47239C28.5453 10.4934 28.5107 12.2919 29.7107 13.3483C30.4122 13.9659 31.0748 14.1777 32.1667 14.1333C33.126 14.0944 33.6455 13.9075 34.244 13.3857C34.8959 12.8175 35.0809 12.3913 35.0826 11.4543C35.084 10.7474 35.053 10.598 34.8172 10.1752C34.5069 9.61898 34.0453 9.23295 33.366 8.96149C32.8144 8.7411 31.917 8.65028 31.343 8.75668ZM21.5427 9.47441V10.1905H21.9733H22.404V12.1283V14.066H23.2634H24.1229L24.1487 12.1493L24.1744 10.2327L25.251 10.2088L26.3277 10.185V12.1255V14.066H27.1889H28.0502V11.619V9.17187L27.8153 8.96512L27.5805 8.75828H24.5615H21.5427V9.47441ZM35.9614 8.81448C35.9263 8.84531 35.8976 10.0396 35.8976 11.4684V14.066H40.1562H44.4149V11.4122V8.75828H43.5553H42.6958L42.6701 10.7171L42.6444 12.6759L41.8549 12.7003L41.0654 12.7249V10.7415V8.75828H40.2058H39.3463L39.3206 10.7171L39.2949 12.6759L38.5054 12.7003L37.7159 12.7249V10.7415V8.75828H36.8706C36.4056 8.75828 35.9965 8.78356 35.9614 8.81448ZM45.1805 9.47441V10.1905H46.2331H47.2858V12.1283V14.066H48.1471H49.0084V12.1283V10.1905H50.0611H51.1138V9.47441V8.75828H48.1471H45.1805V9.47441ZM51.9721 10.9277C51.4366 12.1209 50.8983 13.3152 50.7758 13.5816L50.553 14.066H51.4984H52.4439L52.6098 13.6027L52.7756 13.1393H53.9974H55.2191L55.3851 13.6027L55.5509 14.066H56.5007C57.351 14.066 57.444 14.0512 57.3887 13.9244C57.3548 13.8466 56.8227 12.6525 56.2062 11.271L55.0854 8.75904L54.0154 8.75871L52.9455 8.75828L51.9721 10.9277ZM8.04904 11.3279V12.9708H6.82993H5.61091L7.1888 14.3666C8.0567 15.1343 8.88307 15.8167 9.02518 15.8831C9.33065 16.0258 9.93758 16.0401 10.3157 15.9137C10.5762 15.8265 13.6953 13.1719 13.6953 13.0373C13.6953 13.0007 13.157 12.9708 12.4991 12.9708H11.3028V11.3279V9.68503H9.67594H8.04904V11.3279ZM32.8222 10.4189C33.9054 11.1176 33.3692 12.6478 32.0351 12.6654C30.5012 12.6856 30.0503 10.874 31.4476 10.3049C31.8188 10.1537 32.4984 10.2101 32.8222 10.4189ZM54.3532 10.9698C54.5202 11.3985 54.6564 11.7776 54.6559 11.8123C54.6552 11.8471 54.3487 11.8755 53.9746 11.8755C53.4702 11.8755 53.3061 11.8483 53.3395 11.7702C53.3644 11.7123 53.5071 11.3332 53.6567 10.9277C53.8061 10.5223 53.9557 10.1905 53.9889 10.1905C54.0221 10.1905 54.186 10.5412 54.3532 10.9698Z" />
</svg>
