<svg width="12" height="11" viewBox="0 0 12 11" fill="none" xmlns="http://www.w3.org/2000/svg">
<path d="M2.6312 3.056H3.555C3.89244 3.056 4.166 3.32956 4.166 3.667C4.166 4.00445 3.89244 4.278 3.555 4.278H1.111C0.773554 4.278 0.5 4.00445 0.5 3.667V1.223C0.5 0.885559 0.773554 0.612006 1.111 0.612006C1.44844 0.612006 1.722 0.885559 1.722 1.223V2.22713C2.18447 1.60171 2.7786 1.07734 3.47653 0.690472C6.13276 -0.7819 9.47965 0.177806 10.952 2.83403C12.4244 5.49026 11.4647 8.83716 8.80846 10.3095C6.15223 11.7819 2.80534 10.8222 1.33297 8.16596C1.16937 7.87083 1.276 7.49895 1.57114 7.33535C1.86628 7.17176 2.23815 7.27839 2.40175 7.57353C3.54693 9.63948 6.15007 10.3859 8.21602 9.24074C10.282 8.09556 11.0284 5.49243 9.88324 3.42647C8.73806 1.36052 6.13492 0.614078 4.06897 1.75926C3.48769 2.08146 3.00018 2.52482 2.6312 3.056ZM6.75349 3.66969V5.85829L8.08853 7.19332C8.32621 7.431 8.32621 7.8196 8.08853 8.05728C7.85085 8.29495 7.46225 8.29495 7.22458 8.05728L5.71541 6.54872C5.60237 6.43752 5.5315 6.28416 5.5315 6.11369V3.66969C5.5315 3.66879 5.5315 3.6679 5.5315 3.667V2.445C5.5315 2.10756 5.80505 1.834 6.1425 1.834C6.47994 1.834 6.75349 2.10756 6.75349 2.445V3.667C6.75349 3.6679 6.75349 3.66879 6.75349 3.66969H6.75349Z" fill="#42526E"/>
</svg>
